<svg width="304" height="391" viewBox="0 0 304 391" fill="none" xmlns="http://www.w3.org/2000/svg">
<path d="M147.6 309H149.1V304.1L154.3 295H152.6L148.4 302.5H148.3L144.1 295H142.4L147.6 304.1V309ZM156.795 309H166.595V307.6H158.295V302.4H164.795V301H158.295V296.4H166.395V295H156.795V309ZM167.888 309H169.488L171.088 305.1H177.688L179.288 309H180.888L175.088 295H173.688L167.888 309ZM171.688 303.7L174.388 297.1L177.088 303.7H171.688ZM183.397 309H184.897V303.4H188.897L191.997 309H193.697L190.397 303.2C190.937 303.02 191.417 302.74 191.837 302.4C192.557 301.78 193.297 300.8 193.297 299.2C193.297 296.8 191.497 295 188.997 295H183.397V309ZM184.897 302V296.4H188.997C190.697 296.4 191.797 297.5 191.797 299.2C191.797 300.9 190.697 302 188.997 302H184.897ZM201.092 309H202.592V295H201.092V309ZM206.795 309H208.295V297.7L216.895 309H218.195V295H216.695V306.3L208.095 295H206.795V309ZM226.6 309H228.1V303.4H232.1L235.2 309H236.9L233.6 303.2C234.14 303.02 234.62 302.74 235.04 302.4C235.76 301.78 236.5 300.8 236.5 299.2C236.5 296.8 234.7 295 232.2 295H226.6V309ZM228.1 302V296.4H232.2C233.9 296.4 235 297.5 235 299.2C235 300.9 233.9 302 232.2 302H228.1ZM240.096 309H249.896V307.6H241.596V302.4H248.096V301H241.596V296.4H249.696V295H240.096V309ZM256.889 309H258.289L263.789 295H262.189L257.589 306.9L252.989 295H251.389L256.889 309ZM266.483 309H267.983V295H266.483V309ZM272.186 309H281.986V307.6H273.686V302.4H280.186V301H273.686V296.4H281.786V295H272.186V309ZM288.079 309H289.579L293.279 297.3L296.979 309H298.479L303.079 295H301.479L297.779 306.7L293.979 295H292.579L288.779 306.7L285.079 295H283.479L288.079 309Z" fill="#FEFEFE"/>
<path fill-rule="evenodd" clip-rule="evenodd" d="M0 177.802V180.705H112.487L129.421 124.582L127.485 124.099C115.39 139.903 99.1821 147.806 78.8619 147.806H34.109C64.7506 127.647 87.248 109.907 101.601 94.5859C116.116 79.1038 123.373 63.4604 123.373 47.6558C123.373 33.3026 117.89 21.7717 106.923 13.063C95.9567 4.35434 79.6683 0 58.0578 0C41.4468 0 26.9324 2.58035 14.5145 7.74105L8.22486 53.7035L10.6439 54.1873C26.2873 21.6104 41.6081 5.32197 56.6064 5.32197C64.0249 5.32197 69.75 9.19249 73.7818 16.9335C77.8136 24.5133 79.8295 35.0766 79.8295 48.6234C79.8295 67.1697 73.8625 86.1998 61.9284 105.714C50.1555 125.228 29.5127 149.257 0 177.802ZM168.668 157.724C183.989 175.464 202.374 184.334 223.823 184.334C245.595 184.334 264.302 175.464 279.946 157.724C295.75 139.823 303.653 117.97 303.653 92.1668C303.653 66.0408 295.831 44.1885 280.188 26.6098C264.544 8.86995 245.756 0 223.823 0C202.213 0 183.747 8.86995 168.426 26.6098C153.267 44.1885 145.687 66.0408 145.687 92.1668C145.687 118.132 153.347 139.984 168.668 157.724ZM257.448 92.1668C257.448 150.063 246.24 179.012 223.823 179.012C217.695 179.012 212.453 176.915 208.099 172.722C203.906 168.368 200.6 162.159 198.181 154.095C195.923 145.87 194.31 136.758 193.343 126.76C192.375 116.761 191.891 105.23 191.891 92.1668C191.891 78.9425 192.375 67.331 193.343 57.3321C194.31 47.3333 195.923 38.302 198.181 30.2385C200.6 22.0136 203.906 15.8046 208.099 11.6116C212.453 7.4185 217.695 5.32197 223.823 5.32197C246.24 5.32197 257.448 34.2702 257.448 92.1668ZM0 387.371V384.469C29.5127 355.923 50.1555 331.894 61.9284 312.38C73.8625 292.866 79.8295 273.836 79.8295 255.29C79.8295 241.743 77.8136 231.18 73.7818 223.6C69.7501 215.859 64.0249 211.988 56.6064 211.988C41.6081 211.988 26.2873 228.277 10.6439 260.854L8.22488 260.37L14.5145 214.407C26.9324 209.247 41.4469 206.666 58.0578 206.666C79.6683 206.666 95.9567 211.021 106.923 219.729C117.89 228.438 123.373 239.969 123.373 254.322C123.373 270.127 116.116 285.77 101.601 301.252C87.248 316.573 64.7506 334.313 34.109 354.472H78.8619C99.1821 354.472 115.39 346.57 127.485 330.765L129.421 331.249L112.487 387.371H0ZM168.668 364.39C183.989 382.13 202.374 391 223.823 391C245.595 391 264.302 382.13 279.946 364.39C290.328 352.631 297.3 339.167 300.862 323.998H256.617C253.646 365.118 242.715 385.678 223.823 385.678C217.695 385.678 212.453 383.581 208.099 379.388C203.906 375.034 200.6 368.825 198.181 360.762C195.923 352.537 194.31 343.425 193.343 333.426C193.052 330.422 192.805 327.279 192.602 323.998H148.368C151.813 339.245 158.58 352.709 168.668 364.39ZM146.817 282C149.443 263.178 156.646 246.937 168.426 233.276C183.747 215.536 202.213 206.666 223.823 206.666C245.756 206.666 264.544 215.536 280.188 233.276C292.344 246.937 299.777 263.178 302.487 282H257.098C255.042 235.326 243.951 211.988 223.823 211.988C217.695 211.988 212.453 214.085 208.099 218.278C203.906 222.471 200.6 228.68 198.181 236.905C195.923 244.968 194.31 254 193.343 263.999C192.809 269.509 192.423 275.51 192.184 282H146.817Z" fill="url(#paint0_linear)"/>
<defs>
<linearGradient id="paint0_linear" x1="153.925" y1="308.473" x2="153.925" y2="-312.442" gradientUnits="userSpaceOnUse">
<stop stop-color="#2C2B2B" stop-opacity="0.66"/>
<stop offset="1" stop-color="white" stop-opacity="0"/>
</linearGradient>
</defs>
</svg>
