<svg width="755" height="221" viewBox="0 0 755 221" fill="none" xmlns="http://www.w3.org/2000/svg">
<path d="M520.4 124H522.65V116.65L530.45 103H527.9L521.6 114.25H521.45L515.15 103H512.6L520.4 116.65V124ZM534.193 124H548.893V121.9H536.443V114.1H546.193V112H536.443V105.1H548.593V103H534.193V124ZM550.832 124H553.232L555.632 118.15H565.532L567.932 124H570.332L561.632 103H559.532L550.832 124ZM556.532 116.05L560.582 106.15L564.632 116.05H556.532ZM574.095 124H576.345V115.6H582.345L586.995 124H589.545L584.595 115.3C585.405 115.03 586.125 114.61 586.755 114.1C587.835 113.17 588.945 111.7 588.945 109.3C588.945 105.7 586.245 103 582.495 103H574.095V124ZM576.345 113.5V105.1H582.495C585.045 105.1 586.695 106.75 586.695 109.3C586.695 111.85 585.045 113.5 582.495 113.5H576.345ZM600.638 124H602.888V103H600.638V124ZM609.193 124H611.443V107.05L624.343 124H626.293V103H624.043V119.95L611.143 103H609.193V124ZM638.9 124H641.15V115.6H647.15L651.8 124H654.35L649.4 115.3C650.21 115.03 650.93 114.61 651.56 114.1C652.64 113.17 653.75 111.7 653.75 109.3C653.75 105.7 651.05 103 647.3 103H638.9V124ZM641.15 113.5V105.1H647.3C649.85 105.1 651.5 106.75 651.5 109.3C651.5 111.85 649.85 113.5 647.3 113.5H641.15ZM659.144 124H673.844V121.9H661.394V114.1H671.144V112H661.394V105.1H673.544V103H659.144V124ZM684.334 124H686.434L694.684 103H692.284L685.384 120.85L678.484 103H676.084L684.334 124ZM698.724 124H700.974V103H698.724V124ZM707.279 124H721.979V121.9H709.529V114.1H719.279V112H709.529V105.1H721.679V103H707.279V124ZM731.118 124H733.368L738.918 106.45L744.468 124H746.718L753.618 103H751.218L745.668 120.55L739.968 103H737.868L732.168 120.55L726.618 103H724.218L731.118 124Z" fill="#FEFEFE"/>
<path fill-rule="evenodd" clip-rule="evenodd" d="M0.575989 212.544V216H134.496L154.656 149.184L152.352 148.608C137.952 167.424 118.656 176.832 94.464 176.832H41.184C77.664 152.832 104.448 131.712 121.536 113.472C138.816 95.04 147.456 76.416 147.456 57.6C147.456 40.512 140.928 26.784 127.872 16.416C114.816 6.04799 95.424 0.863983 69.696 0.863983C49.92 0.863983 32.64 3.93598 17.856 10.08L10.368 64.8L13.248 65.376C31.872 26.592 50.112 7.19999 67.968 7.19999C76.8 7.19999 83.616 11.808 88.416 21.024C93.216 30.048 95.616 42.624 95.616 58.752C95.616 80.832 88.512 103.488 74.304 126.72C60.288 149.952 35.712 178.56 0.575989 212.544ZM201.382 188.64C219.622 209.76 241.51 220.32 267.046 220.32C292.966 220.32 315.238 209.76 333.862 188.64C352.678 167.328 362.086 141.312 362.086 110.592C362.086 79.488 352.774 53.472 334.15 32.544C315.526 11.424 293.158 0.863983 267.046 0.863983C241.318 0.863983 219.334 11.424 201.094 32.544C183.046 53.472 174.022 79.488 174.022 110.592C174.022 141.504 183.142 167.52 201.382 188.64ZM307.078 110.592C307.078 179.52 293.734 213.984 267.046 213.984C259.75 213.984 253.51 211.488 248.326 206.496C243.334 201.312 239.398 193.92 236.518 184.32C233.83 174.528 231.91 163.68 230.758 151.776C229.606 139.872 229.03 126.144 229.03 110.592C229.03 94.848 229.606 81.024 230.758 69.12C231.91 57.216 233.83 46.464 236.518 36.864C239.398 27.072 243.334 19.68 248.326 14.688C253.51 9.69598 259.75 7.19999 267.046 7.19999C293.734 7.19999 307.078 41.664 307.078 110.592ZM364.232 216V212.544C399.368 178.56 423.944 149.952 437.96 126.72C452.168 103.488 459.272 80.832 459.272 58.752C459.272 42.624 456.872 30.048 452.072 21.024C447.272 11.808 440.456 7.19999 431.624 7.19999C413.768 7.19999 395.528 26.592 376.904 65.376L374.024 64.8L381.512 10.08C396.296 3.93598 413.576 0.863983 433.352 0.863983C459.08 0.863983 478.472 6.04799 491.528 16.416C504.584 26.784 511.112 40.512 511.112 57.6C511.112 76.416 502.472 95.04 485.192 113.472C468.104 131.712 441.32 152.832 404.84 176.832H458.12C482.312 176.832 501.608 167.424 516.008 148.608L518.312 149.184L498.152 216H364.232ZM565.038 188.64C583.278 209.76 605.166 220.32 630.702 220.32C656.622 220.32 678.894 209.76 697.518 188.64C709.776 174.756 718.041 158.876 722.313 141H669.711C666.128 189.656 653.125 213.984 630.702 213.984C623.406 213.984 617.166 211.488 611.982 206.496C606.99 201.312 603.054 193.92 600.174 184.32C597.486 174.528 595.566 163.68 594.414 151.776C594.081 148.336 593.796 144.744 593.56 141H540.972C545.105 158.968 553.127 174.848 565.038 188.64ZM538.961 91C542.035 68.401 550.631 48.9156 564.75 32.544C582.99 11.424 604.974 0.863983 630.702 0.863983C656.814 0.863983 679.182 11.424 697.806 32.544C712.375 48.9156 721.246 68.401 724.418 91H670.336C667.94 35.1333 654.729 7.19999 630.702 7.19999C623.406 7.19999 617.166 9.69598 611.982 14.688C606.99 19.68 603.054 27.072 600.174 36.864C597.486 46.464 595.566 57.216 594.414 69.12C593.767 75.8074 593.301 83.1007 593.018 91H538.961Z" fill="url(#paint0_linear)"/>
<defs>
<linearGradient id="paint0_linear" x1="367.5" y1="174" x2="367.5" y2="-174.5" gradientUnits="userSpaceOnUse">
<stop stop-color="#2C2B2B" stop-opacity="0.66"/>
<stop offset="1" stop-color="white" stop-opacity="0"/>
</linearGradient>
</defs>
</svg>
