<svg width="35" height="36" viewBox="0 0 35 36" fill="none" xmlns="http://www.w3.org/2000/svg">
<path d="M8.57141 27.8006C9.03008 26.9328 9.33586 26.1593 9.48875 25.4802C9.64165 24.801 9.71809 23.886 9.71809 22.7353V12.2649C9.71809 11.1141 9.64165 10.1992 9.48875 9.51999C9.33586 8.84084 9.03008 8.06735 8.57141 7.19954V7.14294H15.8815C20.7167 7.14294 23.1342 8.79367 23.1342 12.0951C23.1342 13.3214 22.7902 14.3967 22.1022 15.3211C21.4142 16.2267 20.3727 16.8964 18.9775 17.3303L22.3889 23.9238C22.9813 25.0934 23.4878 25.9141 23.9082 26.3857C24.3478 26.8574 24.9498 27.2818 25.7143 27.6591V27.8572H20.6689L15.5088 17.868H13.0148V22.7353C13.0148 23.9238 13.0817 24.8482 13.2155 25.5085C13.3684 26.1688 13.6837 26.9328 14.1615 27.8006V27.8572H8.57141V27.8006ZM15.2508 7.70891H14.3908C13.8366 7.70891 13.3779 7.71834 13.0148 7.73721V17.302H15.2508C18.2704 17.302 19.7802 15.5569 19.7802 12.0668C19.7802 10.6708 19.4362 9.59546 18.7482 8.84084C18.0793 8.08622 16.9135 7.70891 15.2508 7.70891Z" fill="#FEFEFE"/>
<rect x="0.5" y="0.5" width="34" height="34.7143" rx="2.5" stroke="white"/>
</svg>
