<svg width="18" height="18" viewBox="0 0 18 18" fill="none" xmlns="http://www.w3.org/2000/svg">
<path fill-rule="evenodd" clip-rule="evenodd" d="M9.00114 11.9585L14.8271 17.5722C15.4115 18.1397 15.7918 18.1455 16.3869 17.5722L17.5558 16.4456C18.1285 15.894 18.1673 15.5319 17.5558 14.9427L11.3879 9.00023L17.5564 3.05778C18.1341 2.49926 18.1454 2.12234 17.5564 1.5543L16.3875 0.428274C15.7811 -0.156178 15.4065 -0.129179 14.8277 0.428274L9.00114 6.04197L3.17519 0.428803C2.59636 -0.128649 2.22173 -0.155648 1.61534 0.428803L0.446438 1.55482C-0.143076 2.12286 -0.132388 2.49979 0.446438 3.05831L6.6144 9.00023L0.446438 14.9427C-0.165014 15.5319 -0.132388 15.894 0.446438 16.4456L1.61478 17.5722C2.20486 18.1455 2.58511 18.1397 3.17463 17.5722L9.00114 11.9585Z" fill="white"/>
</svg>
