<svg width="17" height="14" viewBox="0 0 17 14" fill="none" xmlns="http://www.w3.org/2000/svg">
<path d="M17 1.65738C16.3678 1.93846 15.6942 2.12477 14.9919 2.21523C15.7144 1.778 16.2658 1.09092 16.5251 0.262769C15.8514 0.669846 15.1077 0.957385 14.3151 1.11785C13.6754 0.427539 12.7638 0 11.7693 0C9.83981 0 8.28644 1.58738 8.28644 3.53339C8.28644 3.81339 8.30981 4.08262 8.36719 4.33892C5.46975 4.19569 2.90594 2.78815 1.18362 0.644C0.882937 1.17277 0.706563 1.778 0.706563 2.42954C0.706563 3.65292 1.32812 4.73738 2.25463 5.36523C1.69469 5.35446 1.14538 5.18969 0.68 4.93015C0.68 4.94092 0.68 4.95492 0.68 4.96892C0.68 6.68554 1.88806 8.11139 3.47225 8.43985C3.18856 8.51846 2.87937 8.55615 2.5585 8.55615C2.33538 8.55615 2.11012 8.54323 1.89869 8.49585C2.35025 9.89477 3.63163 10.9232 5.15525 10.9566C3.9695 11.8968 2.46394 12.4632 0.834063 12.4632C0.54825 12.4632 0.274125 12.4503 0 12.4148C1.54381 13.4238 3.37344 14 5.3465 14C11.7597 14 15.266 8.61539 15.266 3.948C15.266 3.79185 15.2607 3.64108 15.2533 3.49138C15.9449 2.99385 16.5261 2.37246 17 1.65738Z" fill="#03A9F4"/>
</svg>
