<svg width="28" height="26" viewBox="0 0 28 26" fill="none" xmlns="http://www.w3.org/2000/svg">
<path d="M22.362 6.75961C22.068 4.98046 21.2029 3.35678 19.8799 2.12461C18.4098 0.754267 16.4987 0 14.5085 0C12.9705 0 11.4722 0.449106 10.1887 1.2955C9.12008 1.99794 8.23239 2.94797 7.60478 4.06498C7.33338 4.01316 7.05068 3.98437 6.76797 3.98437C4.36497 3.98437 2.40865 5.97656 2.40865 8.42361C2.40865 8.74028 2.44258 9.04545 2.49912 9.34485C0.944237 10.4964 0 12.3504 0 14.3253C0 15.9202 0.582374 17.4691 1.64535 18.6955C2.73659 19.9506 4.17839 20.6934 5.71631 20.7798C5.73327 20.7798 5.74458 20.7798 5.76154 20.7798H10.6241C11.0481 20.7798 11.3874 20.4343 11.3874 20.0025C11.3874 19.5706 11.0481 19.2252 10.6241 19.2252H5.78416C3.47162 19.0812 1.52661 16.8415 1.52661 14.3196C1.52661 12.6901 2.38603 11.1701 3.77129 10.3467C4.09358 10.1567 4.22928 9.75941 4.10489 9.40243C3.9918 9.09151 3.93526 8.76332 3.93526 8.41209C3.93526 6.82295 5.20744 5.52745 6.76797 5.52745C7.10156 5.52745 7.4295 5.58503 7.73482 5.70018C8.108 5.83837 8.52075 5.66564 8.69037 5.3029C9.74769 3.01707 12.0319 1.54308 14.5141 1.54308C17.85 1.54308 20.6036 4.08801 20.9202 7.46206C20.9541 7.81328 21.2142 8.09541 21.5535 8.15299C24.0696 8.59058 25.9693 10.957 25.9693 13.6574C25.9693 16.519 23.7586 19.0064 21.0333 19.2194H16.8662C16.4422 19.2194 16.1029 19.5649 16.1029 19.9967C16.1029 20.4285 16.4422 20.774 16.8662 20.774H21.0616C21.0785 20.774 21.0955 20.774 21.1181 20.774C22.8426 20.6473 24.454 19.8412 25.6527 18.4939C26.8457 17.1581 27.4959 15.4423 27.4959 13.6574C27.4903 10.4273 25.3248 7.55418 22.362 6.75961Z" fill="white"/>
<path d="M18.3305 15.0621C18.6301 14.7569 18.6301 14.2675 18.3305 13.9623L14.2878 9.84554C14.1464 9.7016 13.9485 9.61523 13.7506 9.61523C13.5527 9.61523 13.3548 9.69584 13.2135 9.84554L9.1708 13.9623C8.87113 14.2675 8.87113 14.7569 9.1708 15.0621C9.3178 15.2118 9.5157 15.2924 9.70794 15.2924C9.90018 15.2924 10.0981 15.2175 10.2451 15.0621L12.9873 12.2696V25.1036C12.9873 25.5354 13.3266 25.8809 13.7506 25.8809C14.1747 25.8809 14.5139 25.5354 14.5139 25.1036V12.2696L17.2562 15.0621C17.5502 15.3672 18.0308 15.3672 18.3305 15.0621Z" fill="white"/>
</svg>
